<svg width="55" height="46" viewBox="0 0 55 46" fill="none" xmlns="http://www.w3.org/2000/svg">
<rect x="0.839844" y="6" width="48" height="40" rx="20" fill="url(#paint0_linear_223_1369)"/>
<path d="M24.8399 14C25.5763 14 26.1733 14.597 26.1733 15.3333V36.6667C26.1733 37.403 25.5763 38 24.8399 38C24.1035 38 23.5066 37.403 23.5066 36.6667V15.3333C23.5066 14.597 24.1035 14 24.8399 14Z" fill="white"/>
<path d="M32.8399 22C33.5763 22 34.1733 22.597 34.1733 23.3333V36.6667C34.1733 37.403 33.5763 38 32.8399 38C32.1035 38 31.5066 37.403 31.5066 36.6667V23.3333C31.5066 22.597 32.1035 22 32.8399 22Z" fill="white"/>
<path d="M18.1733 28.6667C18.1733 27.9303 17.5763 27.3333 16.8399 27.3333C16.1035 27.3333 15.5066 27.9303 15.5066 28.6667V36.6667C15.5066 37.403 16.1035 38 16.8399 38C17.5763 38 18.1733 37.403 18.1733 36.6667V28.6667Z" fill="white"/>
<path d="M29.3398 10C29.3398 6.13401 32.4739 3 36.3398 3H44.3398C48.2058 3 51.3398 6.13401 51.3398 10C51.3398 13.866 48.2058 17 44.3398 17H36.3398C32.4739 17 29.3398 13.866 29.3398 10Z" fill="#9AC45E"/>
<path d="M36.0598 7.87V13H38.1098V5.85H36.3398L34.6998 7V8.71L36.0598 7.87ZM42.5711 11.63V13H44.5411V11.63H45.4611V10.22H44.5411V5.85H42.0711L39.0911 10.86V11.63H42.5711ZM42.6211 10.22H41.0211L42.6211 7.39V10.22Z" fill="white"/>
<path d="M36.3398 6H44.3398V0H36.3398V6ZM44.3398 14H36.3398V20H44.3398V14ZM36.3398 14C34.1307 14 32.3398 12.2091 32.3398 10H26.3398C26.3398 15.5228 30.817 20 36.3398 20V14ZM48.3398 10C48.3398 12.2091 46.549 14 44.3398 14V20C49.8627 20 54.3398 15.5228 54.3398 10H48.3398ZM44.3398 6C46.549 6 48.3398 7.79086 48.3398 10H54.3398C54.3398 4.47715 49.8627 0 44.3398 0V6ZM36.3398 0C30.817 0 26.3398 4.47715 26.3398 10H32.3398C32.3398 7.79086 34.1307 6 36.3398 6V0Z" fill="white"/>
<defs>
<linearGradient id="paint0_linear_223_1369" x1="0.839844" y1="26" x2="48.8398" y2="26" gradientUnits="userSpaceOnUse">
<stop stop-color="#44C58D"/>
<stop offset="1" stop-color="#99CC51"/>
</linearGradient>
</defs>
</svg>
