<svg width="52" height="46" viewBox="0 0 52 46" fill="none" xmlns="http://www.w3.org/2000/svg">
<rect x="0.839844" y="6" width="48" height="40" rx="20" fill="url(#paint0_linear_223_1412)"/>
<g clip-path="url(#clip0_223_1412)">
<path fill-rule="evenodd" clip-rule="evenodd" d="M10.1732 10C9.4368 10 8.83984 10.597 8.83984 11.3333C8.83984 12.0697 9.4368 12.6667 10.1732 12.6667H14.4136L15.5224 18.2068C15.5284 18.2447 15.5359 18.2821 15.5449 18.3189L17.7723 29.4476C17.9554 30.3679 18.4562 31.1946 19.1871 31.783C19.9148 32.3688 20.8243 32.6813 21.758 32.6667H34.695C35.6287 32.6813 36.5382 32.3688 37.2659 31.783C37.9972 31.1943 38.4981 30.3672 38.681 29.4464L40.8162 18.2498C40.8907 17.8594 40.7871 17.4562 40.5338 17.1501C40.2805 16.8439 39.9039 16.6667 39.5065 16.6667H17.9338L16.8139 11.0717C16.6892 10.4485 16.142 10 15.5065 10H10.1732ZM20.3876 28.9269L18.4675 19.3333H37.8949L36.0645 28.9312C36.0029 29.2364 35.8363 29.5105 35.5937 29.7058C35.3499 29.902 35.0449 30.0062 34.7321 30.0002L34.7065 30H21.7465L21.721 30.0002C21.4081 30.0062 21.1031 29.902 20.8593 29.7058C20.6156 29.5096 20.4486 29.2338 20.3876 28.9269Z" fill="white"/>
<path d="M20.8398 40.6667C22.3126 40.6667 23.5065 39.4728 23.5065 38C23.5065 36.5272 22.3126 35.3333 20.8398 35.3333C19.3671 35.3333 18.1732 36.5272 18.1732 38C18.1732 39.4728 19.3671 40.6667 20.8398 40.6667Z" fill="white"/>
<path d="M35.5065 40.6667C36.9793 40.6667 38.1732 39.4728 38.1732 38C38.1732 36.5272 36.9793 35.3333 35.5065 35.3333C34.0338 35.3333 32.8398 36.5272 32.8398 38C32.8398 39.4728 34.0338 40.6667 35.5065 40.6667Z" fill="white"/>
</g>
<path d="M33.3398 10C33.3398 6.13401 36.4739 3 40.3398 3H41.3398C45.2058 3 48.3398 6.13401 48.3398 10C48.3398 13.866 45.2058 17 41.3398 17H40.3398C36.4739 17 33.3398 13.866 33.3398 10Z" fill="#9AC45E"/>
<path d="M40.0598 7.87V13H42.1098V5.85H40.3398L38.6998 7V8.71L40.0598 7.87Z" fill="white"/>
<path d="M40.3398 6H41.3398V0H40.3398V6ZM41.3398 14H40.3398V20H41.3398V14ZM40.3398 14C38.1307 14 36.3398 12.2091 36.3398 10H30.3398C30.3398 15.5228 34.817 20 40.3398 20V14ZM45.3398 10C45.3398 12.2091 43.549 14 41.3398 14V20C46.8627 20 51.3398 15.5228 51.3398 10H45.3398ZM41.3398 6C43.549 6 45.3398 7.79086 45.3398 10H51.3398C51.3398 4.47715 46.8627 0 41.3398 0V6ZM40.3398 0C34.817 0 30.3398 4.47715 30.3398 10H36.3398C36.3398 7.79086 38.1307 6 40.3398 6V0Z" fill="white"/>
<defs>
<linearGradient id="paint0_linear_223_1412" x1="0.839844" y1="26" x2="48.8398" y2="26" gradientUnits="userSpaceOnUse">
<stop stop-color="#44C58D"/>
<stop offset="1" stop-color="#99CC51"/>
</linearGradient>
<clipPath id="clip0_223_1412">
<rect width="32" height="32" fill="white" transform="translate(8.83984 10)"/>
</clipPath>
</defs>
</svg>
