<svg width="43" height="42" viewBox="0 0 43 42" fill="none" xmlns="http://www.w3.org/2000/svg">
<path d="M16.0001 14C16.7365 14 17.3334 14.597 17.3334 15.3333V36.6667C17.3334 37.403 16.7365 38 16.0001 38C15.2637 38 14.6667 37.403 14.6667 36.6667V15.3333C14.6667 14.597 15.2637 14 16.0001 14Z" fill="#0A0A0A"/>
<path d="M24.0001 22C24.7365 22 25.3334 22.597 25.3334 23.3333V36.6667C25.3334 37.403 24.7365 38 24.0001 38C23.2637 38 22.6667 37.403 22.6667 36.6667V23.3333C22.6667 22.597 23.2637 22 24.0001 22Z" fill="#0A0A0A"/>
<path d="M9.33341 28.6667C9.33341 27.9303 8.73646 27.3333 8.00008 27.3333C7.2637 27.3333 6.66675 27.9303 6.66675 28.6667V36.6667C6.66675 37.403 7.2637 38 8.00008 38C8.73646 38 9.33341 37.403 9.33341 36.6667V28.6667Z" fill="#0A0A0A"/>
<path d="M23 10C23 6.13401 26.134 3 30 3H33C36.866 3 40 6.13401 40 10C40 13.866 36.866 17 33 17H30C26.134 17 23 13.866 23 10Z" fill="#9AC45E"/>
<path d="M31.7 11.63V13H33.67V11.63H34.59V10.22H33.67V5.85H31.2L28.22 10.86V11.63H31.7ZM31.75 10.22H30.15L31.75 7.39V10.22Z" fill="white"/>
<path d="M30 6H33V0H30V6ZM33 14H30V20H33V14ZM30 14C27.7909 14 26 12.2091 26 10H20C20 15.5228 24.4772 20 30 20V14ZM37 10C37 12.2091 35.2091 14 33 14V20C38.5228 20 43 15.5228 43 10H37ZM33 6C35.2091 6 37 7.79086 37 10H43C43 4.47715 38.5228 0 33 0V6ZM30 0C24.4772 0 20 4.47715 20 10H26C26 7.79086 27.7909 6 30 6V0Z" fill="white"/>
</svg>
