<svg width="48" height="40" viewBox="0 0 48 40" fill="none" xmlns="http://www.w3.org/2000/svg">
<rect width="48" height="40" rx="20" fill="#F5F5F5"/>
<path d="M35.5057 12.9729C35.2289 11.8106 34.4184 10.8941 33.3904 10.5812C31.5123 10 23.9999 10 23.9999 10C23.9999 10 16.4876 10 14.6095 10.5588C13.6013 10.8718 12.771 11.8106 12.4942 12.9729C12 15.0965 12 19.5 12 19.5C12 19.5 12 23.9259 12.4942 26.0271C12.771 27.1894 13.5815 28.1059 14.6095 28.4188C16.5074 29 23.9999 29 23.9999 29C23.9999 29 31.5123 29 33.3904 28.4412C34.4184 28.1282 35.2289 27.2118 35.5057 26.0494C35.9999 23.9259 35.9999 19.5224 35.9999 19.5224C35.9999 19.5224 36.0197 15.0965 35.5057 12.9729ZM21.6079 23.5682V15.4318L27.855 19.5L21.6079 23.5682Z" fill="#0A0A0A"/>
</svg>
