<svg width="25" height="24" viewBox="0 0 25 24" fill="none" xmlns="http://www.w3.org/2000/svg">
<path d="M19.547 6.70711C19.9375 6.31658 19.9375 5.68342 19.547 5.29289C19.1564 4.90237 18.5233 4.90237 18.1327 5.29289L12.8398 10.5858L7.54695 5.29289C7.15643 4.90237 6.52326 4.90237 6.13274 5.29289C5.74221 5.68342 5.74221 6.31658 6.13274 6.70711L11.4256 12L6.13274 17.2929C5.74221 17.6834 5.74221 18.3166 6.13274 18.7071C6.52326 19.0976 7.15643 19.0976 7.54695 18.7071L12.8398 13.4142L18.1327 18.7071C18.5233 19.0976 19.1564 19.0976 19.547 18.7071C19.9375 18.3166 19.9375 17.6834 19.547 17.2929L14.2541 12L19.547 6.70711Z" fill="#0A0A0A"/>
</svg>
