<svg width="43" height="42" viewBox="0 0 43 42" fill="none" xmlns="http://www.w3.org/2000/svg">
<g clip-path="url(#clip0_180_1394)">
<path fill-rule="evenodd" clip-rule="evenodd" d="M1.33333 10C0.596954 10 0 10.597 0 11.3333C0 12.0697 0.596954 12.6667 1.33333 12.6667H5.57375L6.6826 18.2068C6.68851 18.2447 6.69602 18.2821 6.70505 18.3189L8.93244 29.4476C9.11551 30.3679 9.61633 31.1946 10.3473 31.783C11.0749 32.3688 11.9845 32.6813 12.9182 32.6667H25.8551C26.7888 32.6813 27.6984 32.3688 28.426 31.783C29.1573 31.1943 29.6583 30.3672 29.8412 29.4464L31.9764 18.2498C32.0508 17.8594 31.9473 17.4562 31.694 17.1501C31.4407 16.8439 31.064 16.6667 30.6667 16.6667H9.09391L7.97407 11.0717C7.84935 10.4485 7.30217 10 6.66667 10H1.33333ZM11.5478 28.9269L9.62764 19.3333H29.055L27.2247 28.9312C27.163 29.2364 26.9965 29.5105 26.7539 29.7058C26.5101 29.902 26.2051 30.0062 25.8922 30.0002L25.8667 30H12.9067L12.8811 30.0002C12.5683 30.0062 12.2632 29.902 12.0195 29.7058C11.7757 29.5096 11.6087 29.2338 11.5478 28.9269Z" fill="#0A0A0A"/>
<path d="M12 40.6667C13.4728 40.6667 14.6667 39.4728 14.6667 38C14.6667 36.5272 13.4728 35.3333 12 35.3333C10.5272 35.3333 9.33333 36.5272 9.33333 38C9.33333 39.4728 10.5272 40.6667 12 40.6667Z" fill="#0A0A0A"/>
<path d="M26.6667 40.6667C28.1394 40.6667 29.3333 39.4728 29.3333 38C29.3333 36.5272 28.1394 35.3333 26.6667 35.3333C25.1939 35.3333 24 36.5272 24 38C24 39.4728 25.1939 40.6667 26.6667 40.6667Z" fill="#0A0A0A"/>
</g>
<path d="M24.5 10C24.5 6.13401 27.634 3 31.5 3H32.5C36.366 3 39.5 6.13401 39.5 10C39.5 13.866 36.366 17 32.5 17H31.5C27.634 17 24.5 13.866 24.5 10Z" fill="#9AC45E"/>
<path d="M31.22 7.87V13H33.27V5.85H31.5L29.86 7V8.71L31.22 7.87Z" fill="white"/>
<path d="M31.5 6H32.5V0H31.5V6ZM32.5 14H31.5V20H32.5V14ZM31.5 14C29.2909 14 27.5 12.2091 27.5 10H21.5C21.5 15.5228 25.9772 20 31.5 20V14ZM36.5 10C36.5 12.2091 34.7091 14 32.5 14V20C38.0228 20 42.5 15.5228 42.5 10H36.5ZM32.5 6C34.7091 6 36.5 7.79086 36.5 10H42.5C42.5 4.47715 38.0228 0 32.5 0V6ZM31.5 0C25.9772 0 21.5 4.47715 21.5 10H27.5C27.5 7.79086 29.2909 6 31.5 6V0Z" fill="white"/>
<defs>
<clipPath id="clip0_180_1394">
<rect width="32" height="32" fill="white" transform="translate(0 10)"/>
</clipPath>
</defs>
</svg>
