<svg width="48" height="40" viewBox="0 0 48 40" fill="none" xmlns="http://www.w3.org/2000/svg">
<rect width="48" height="40" rx="20" fill="#F5F5F5"/>
<path d="M25.0718 27C16.872 27 12.1949 21.7447 12 13H16.1074C16.2423 19.4184 19.2705 22.1371 21.669 22.6977V13H25.5365V18.5355C27.9051 18.2973 30.3935 15.7748 31.233 13H35.1006C34.7842 14.4391 34.1537 15.8017 33.2483 17.0025C32.3429 18.2033 31.1823 19.2166 29.8389 19.979C31.3384 20.6756 32.6629 21.6615 33.7249 22.8717C34.7869 24.082 35.5624 25.489 36 27H31.7427C31.3498 25.6876 30.5513 24.5128 29.4473 23.6228C28.3433 22.7328 26.9829 22.1673 25.5365 21.997V27H25.0718V27Z" fill="#0A0A0A"/>
</svg>
