<svg width="24" height="24" viewBox="0 0 24 24" fill="none" xmlns="http://www.w3.org/2000/svg">
<path d="M23.5057 4.97294C23.2289 3.81059 22.4184 2.89412 21.3904 2.58118C19.5123 2 11.9999 2 11.9999 2C11.9999 2 4.48763 2 2.60954 2.55882C1.60131 2.87176 0.771002 3.81059 0.494232 4.97294C0 7.09647 0 11.5 0 11.5C0 11.5 0 15.9259 0.494232 18.0271C0.771002 19.1894 1.58154 20.1059 2.60954 20.4188C4.50739 21 11.9999 21 11.9999 21C11.9999 21 19.5123 21 21.3904 20.4412C22.4184 20.1282 23.2289 19.2118 23.5057 18.0494C23.9999 15.9259 23.9999 11.5224 23.9999 11.5224C23.9999 11.5224 24.0197 7.09647 23.5057 4.97294ZM9.60787 15.5682V7.43176L15.855 11.5L9.60787 15.5682Z" fill="#0A0A0A"/>
</svg>
